<?xml version="1.0" encoding="utf-8"?>
<!-- Generator: Adobe Illustrator 22.0.0, SVG Export Plug-In . SVG Version: 6.00 Build 0)  -->
<svg version="1.1" id="Layer_1" xmlns="http://www.w3.org/2000/svg" xmlns:xlink="http://www.w3.org/1999/xlink" x="0px" y="0px"
	 viewBox="0 0 576 144" style="enable-background:new 0 0 576 144;" xml:space="preserve">
<style type="text/css">
	.st0{fill:#F20000;}
	.st1{fill:#FFFFFF;}
</style>
<g>
	<path class="st0" d="M260.4,36.6c1.5,0,2.6,0,3.8,0c17.7,0,35.3,0,53,0c4.8,0,5.9-1.2,5.9-6c0-4.6,0-9.2,0-13.8
		c0-5.7-1-6.6-6.7-6.6c-26.4,0-52.8,0-79.2,0c-5.7,0-6.7,1-6.7,6.6c0,37,0,74.1,0,111.1c0,5.9,1.1,7,7.1,7c17.1,0,34.2,0,51.3,0
		c10.4,0,20.7,0,31.1,0c5.2,0,6.5-1.3,6.5-6.4c0-4,0-8.1,0-12.1c0-7.1-0.7-7.8-7.9-7.8c-18.1,0-36.3,0-54.4,0c-1.2,0-2.4,0-3.6,0
		c0-8.7,0-16.9,0-25.4c1.3,0,2.5,0,3.6,0c15.5,0,31.1,0,46.6,0c4.6,0,6-1.4,6-6c0-4.1,0-8.3,0-12.4c0-6.1-1.1-7.2-7.2-7.2
		c-15.3,0-30.5,0-45.8,0c-1.1,0-2.2,0-3.4,0C260.4,50.3,260.4,43.7,260.4,36.6z M366.3,108.4c0-1.4,0-2.5,0-3.7c0-29,0-58,0-87
		c0-1.2,0-2.3-0.1-3.5c-0.2-2.6-1.7-4.1-4.3-4.1c-7-0.1-14-0.1-21,0c-2.3,0-3.8,1.3-4,3.7c-0.1,1.3-0.2,2.7-0.2,4
		c0,28.7,0,57.4,0,86.1c0,8.4,0,16.7,0,25.1c0,4.4,1.4,5.8,5.6,5.8c26.2,0,52.4,0,78.6,0c4.1,0,5.5-1.5,5.6-5.6
		c0.1-4.6,0-9.2,0-13.8c0-5.9-1-6.9-6.8-6.9c-16.6,0-33.2,0-49.8,0C368.8,108.5,367.7,108.4,366.3,108.4z M195,91.4
		c3-1.9,5.9-3.2,8.4-5.2c14.8-12,19.8-27.4,15.7-45.9c-3.2-14.4-11.6-24.3-26.1-28.1c-5-1.3-10.2-1.9-15.3-2
		c-18.3-0.2-36.7-0.1-55-0.1c-0.4,0-0.9,0-2.1,0.1c1.3,0.6,1.9,0.9,2.6,1.2c11.5,4.9,21.5,11.4,27.1,23.2c0.3,0.7,1.8,1.2,2.8,1.2
		c7,0.1,14,0,21,0.1c9.4,0.1,16.1,6,17.5,15.3c1.1,7.4-4.5,15.7-12.6,18.1c-2.7,0.8-5.7,0.7-8.5,0.8c-3.9,0.2-5.3,1.3-5.3,5.2
		c-0.1,6.3,0,12.7,0.2,19c0,1.6,0.5,3.3,1.3,4.6c7,10.6,14.2,21.2,21.3,31.8c1.8,2.6,4.3,4.2,7.5,4.2c7.5,0.1,15,0.1,22.4,0
		c3.3-0.1,4.5-2.5,3-5.4c-0.4-0.8-0.9-1.4-1.4-2.2c-7.1-10.4-14.2-20.7-21.4-31C197.1,94.7,196.1,93.1,195,91.4z"/>
	<path class="st0" d="M576,97.6c-1.2,3.2-2.1,6.6-3.8,9.5c-3.9,7.1-10.2,12-17.2,15.7c-30.9,16.1-61.9,16.1-92.9,0.1
		c-3.7-1.9-7.2-4.5-10.4-7.2c-7.3-6.2-11-14-10.8-23.7c0.2-12.9,0.2-25.7,0-38.6c-0.2-10.3,4-18.4,11.8-24.8
		c10.5-8.7,22.9-13,35.9-16c23.6-5.4,45.7-0.9,66.7,10.1c6.4,3.3,12.1,7.6,15.9,13.9c2.1,3.5,3.2,7.7,4.8,11.6
		C576,64.6,576,81.1,576,97.6z M547.3,40.7c-16.5,0-32.8,0-49.2,0c0,4.3,0,8.3,0,12.7c5.7,0,11.1,0,16.9,0c0,17.2,0,34.1,0,51
		c5.4,0,10.4,0,15.8,0c0-17.1,0-34,0-51.2c5.7,0,11.2,0,16.6,0C547.3,48.9,547.3,44.9,547.3,40.7z M474.7,40.7c0,21.5,0,42.6,0,63.8
		c5.2,0,10.2,0,15.3,0c0-21.4,0-42.6,0-63.8C484.8,40.7,479.9,40.7,474.7,40.7z"/>
	<path class="st0" d="M73.7,8.4c5.5,1,11.1,1.8,16.6,3c10.9,2.4,21.3,6.3,30.7,12.6c7.2,4.9,13.3,10.8,15.5,19.6
		c0.7,2.7,1,5.5,1,8.2c0.1,13.4-0.1,26.9,0.1,40.3c0.1,9.1-3.3,16.6-9.8,22.8c-9.2,8.6-20.4,13.4-32.4,16.6
		c-6.2,1.6-12.6,2.4-18.9,3.6c-0.7,0.1-1.5,0.4-2.2,0.6c-3.6,0-7.3,0-10.9,0c-0.7-0.2-1.5-0.4-2.2-0.6c-8.9-2-18-3.1-26.5-6.1
		C18.8,123.3,4.2,115.6,0,97.1c0-16.7,0-33.4,0-50.1c2.7-13.2,11.6-21.4,23.1-26.9c7.6-3.6,15.6-6.2,23.7-8.6
		c5.4-1.6,11.1-2.1,16.6-3.1C66.8,8.4,70.3,8.4,73.7,8.4z M28.7,71.7c0,5.8,0.2,11.7-0.1,17.5c-0.2,4.4,1.5,7.6,4.9,10.1
		c1.9,1.4,3.9,2.8,6.1,3.8c12.1,5.4,24.7,8.3,38,6.1c8.7-1.5,17.2-3.8,24.7-8.7c4.2-2.8,6.4-6.5,6.3-11.8c-0.2-11.2-0.2-22.4,0-33.7
		c0.1-4.9-1.9-8.5-5.8-11.1c-1.9-1.3-3.9-2.5-6-3.4c-13.9-6-28.2-8.4-43.2-4.5c-7,1.8-13.8,3.9-19.7,8.3c-3.5,2.6-5.5,5.9-5.3,10.5
		C28.9,60.4,28.7,66.1,28.7,71.7z"/>
	<path class="st0" d="M260.4,36.6c0,7.1,0,13.8,0,20.9c1.2,0,2.3,0,3.4,0c15.3,0,30.5,0,45.8,0c6.1,0,7.2,1.1,7.2,7.2
		c0,4.1,0,8.3,0,12.4c0,4.7-1.3,6-6,6c-15.5,0-31.1,0-46.6,0c-1.1,0-2.3,0-3.6,0c0,8.5,0,16.7,0,25.4c1.2,0,2.4,0,3.6,0
		c18.1,0,36.3,0,54.4,0c7.2,0,7.9,0.7,7.9,7.8c0,4,0,8.1,0,12.1c0,5.1-1.3,6.4-6.5,6.4c-10.4,0-20.7,0-31.1,0c-17.1,0-34.2,0-51.3,0
		c-6,0-7.1-1.1-7.1-7c0-37,0-74.1,0-111.1c0-5.6,1-6.6,6.7-6.6c26.4,0,52.8,0,79.2,0c5.7,0,6.7,1,6.7,6.6c0,4.6,0,9.2,0,13.8
		c0,4.8-1.2,6-5.9,6c-17.7,0-35.3,0-53,0C263.1,36.6,261.9,36.6,260.4,36.6z"/>
	<path class="st0" d="M366.3,108.4c1.4,0.1,2.5,0.2,3.7,0.2c16.6,0,33.2,0,49.8,0c5.8,0,6.8,1.1,6.8,6.9c0,4.6,0.1,9.2,0,13.8
		c-0.1,4.1-1.5,5.6-5.6,5.6c-26.2,0-52.4,0-78.6,0c-4.3,0-5.6-1.4-5.6-5.8c-0.1-8.4,0-16.7,0-25.1c0-28.7,0-57.4,0-86.1
		c0-1.3,0.1-2.7,0.2-4c0.3-2.4,1.7-3.7,4-3.7c7-0.1,14-0.1,21,0c2.6,0,4,1.5,4.3,4.1c0.1,1.1,0.1,2.3,0.1,3.5c0,29,0,58,0,87
		C366.3,105.8,366.3,107,366.3,108.4z"/>
	<path class="st0" d="M195,91.4c1.1,1.6,2.2,3.2,3.2,4.8c7.1,10.4,14.2,20.7,21.4,31c0.5,0.7,1,1.4,1.4,2.2c1.5,2.9,0.3,5.4-3,5.4
		c-7.5,0.1-15,0.1-22.4,0c-3.2,0-5.7-1.6-7.5-4.2c-7.1-10.6-14.3-21.1-21.3-31.8c-0.8-1.3-1.3-3-1.3-4.6c-0.2-6.3-0.2-12.7-0.2-19
		c0-3.8,1.4-5,5.3-5.2c2.9-0.2,5.8-0.1,8.5-0.8c8.1-2.3,13.7-10.6,12.6-18.1c-1.4-9.4-8.1-15.3-17.5-15.3c-7-0.1-14,0-21-0.1
		c-1,0-2.5-0.5-2.8-1.2c-5.7-11.7-15.7-18.3-27.1-23.2c-0.7-0.3-1.3-0.6-2.6-1.2c1.2-0.1,1.6-0.1,2.1-0.1c18.3,0,36.7-0.1,55,0.1
		c5.1,0.1,10.4,0.7,15.3,2c14.5,3.8,22.9,13.6,26.1,28.1c4.1,18.5-0.9,33.9-15.7,45.9C200.9,88.2,198,89.6,195,91.4z"/>
	<path class="st1" d="M547.3,40.7c0,4.1,0,8.1,0,12.4c-5.4,0-10.8,0-16.6,0c0,17.2,0,34.1,0,51.2c-5.4,0-10.4,0-15.8,0
		c0-16.9,0-33.8,0-51c-5.8,0-11.2,0-16.9,0c0-4.4,0-8.4,0-12.7C514.4,40.7,530.8,40.7,547.3,40.7z"/>
	<path class="st1" d="M474.7,40.7c5.2,0,10.1,0,15.3,0c0,21.2,0,42.4,0,63.8c-5.1,0-10.1,0-15.3,0C474.7,83.2,474.7,62.1,474.7,40.7
		z"/>
</g>
</svg>
